<svg width="43" height="57" viewBox="0 0 43 57" fill="none" xmlns="http://www.w3.org/2000/svg">
<path d="M21.4999 1C16.188 1 11.8202 5.30516 11.8202 10.6962V12.9564H6.12625C6.0905 12.9547 6.05515 12.9547 6.01941 12.9564C5.47726 13.0069 5.04473 13.4531 4.98758 14.0214L1.00149 52.2819C0.999504 52.3257 0.999504 52.3695 1.00149 52.4129C1.00149 54.3799 2.54456 56 4.41808 56H38.5819C40.4554 56 41.9985 54.3799 41.9985 52.4129C42.0005 52.3695 42.0005 52.3257 41.9985 52.2819L38.0124 14.0214C37.9489 13.4126 37.4572 12.953 36.8737 12.9564H31.1798V10.6962C31.1798 5.30516 26.812 1 21.5001 1H21.4999ZM21.4999 3.39149C25.6516 3.39149 28.9021 6.65751 28.9021 10.6962V12.9564H14.0978V10.6962C14.0978 6.65751 17.3484 3.39149 21.5001 3.39149H21.4999ZM7.15818 15.3479H11.8203V17.1415C11.816 17.4613 11.9339 17.7699 12.148 17.9976C12.3621 18.2257 12.654 18.3541 12.9591 18.3541C13.2641 18.3541 13.556 18.2257 13.7701 17.9976C13.9842 17.7699 14.1021 17.4613 14.0978 17.1415V15.3479H28.9021V17.739C28.8977 18.0592 29.0157 18.3674 29.2298 18.5955C29.4439 18.8236 29.7358 18.9516 30.0408 18.9516C30.3459 18.9516 30.6378 18.8236 30.8519 18.5955C31.066 18.3674 31.1839 18.0592 31.1796 17.739V15.3479H35.8417L39.7027 52.4501C39.6813 53.1023 39.2098 53.6082 38.5819 53.6082H4.41808C3.79013 53.6082 3.31873 53.1023 3.29728 52.4501L7.15818 15.3479ZM15.806 27.3043C14.5617 27.3043 13.5286 28.3889 13.5286 29.6954C13.5286 31.0018 14.5617 32.0869 15.806 32.0869C17.0503 32.0869 18.0834 31.0018 18.0834 29.6954C18.0834 28.3889 17.0503 27.3043 15.806 27.3043ZM27.194 27.3043C25.9496 27.3043 24.9166 28.3889 24.9166 29.6954C24.9166 31.0018 25.9496 32.0869 27.194 32.0869C28.4383 32.0869 29.4713 31.0018 29.4713 29.6954C29.4713 28.3889 28.4383 27.3043 27.194 27.3043ZM31.1796 36.1782C30.7459 36.1961 30.3595 36.4713 30.1831 36.8879C28.5209 40.0593 25.2116 42.2498 21.5 42.2498C17.7884 42.2498 14.479 40.0593 12.8169 36.8879C12.5988 36.4492 12.1461 36.1969 11.6778 36.2528C11.3005 36.3012 10.9708 36.5443 10.7992 36.9004C10.6277 37.257 10.6368 37.6798 10.8239 38.0276C12.8864 41.9621 16.9404 44.6409 21.5001 44.6409C26.0597 44.6409 30.1137 41.9621 32.1763 38.0276C32.4094 37.6532 32.4241 37.1736 32.2144 36.7842C32.0047 36.3951 31.6055 36.1612 31.1797 36.1783L31.1796 36.1782Z" fill="#9DFF5C" stroke="#9DFF5C" stroke-width="1.1"/>
</svg>
