<svg width="57" height="57" viewBox="0 0 57 57" fill="none" xmlns="http://www.w3.org/2000/svg">
<g clip-path="url(#clip0_1_228)">
<path d="M44.6079 44.6205C40.1913 49.0324 34.3332 51.2843 28.4523 51.2843C23.563 51.2843 18.6568 49.7277 14.5486 46.5618C14.2371 46.3218 14.1789 45.8745 14.4197 45.5628C14.6601 45.2507 15.1068 45.1926 15.4203 45.4341C23.9024 51.9722 36.0173 51.1884 43.5984 43.6132C51.1819 36.0379 51.9651 23.9367 45.4213 15.4643C45.181 15.1532 45.2387 14.7054 45.5502 14.4653C45.8631 14.2238 46.3099 14.2829 46.5507 14.5941C53.5321 23.6315 52.6963 36.5403 44.6068 44.6208L44.6079 44.6205ZM13.3386 13.385C20.9216 5.81125 33.0351 5.02737 41.5167 11.5641C41.8291 11.8051 42.2764 11.746 42.5172 11.4353C42.7575 11.1242 42.6998 10.6764 42.3884 10.4364C33.3406 3.46289 20.4183 4.29741 12.329 12.3782C4.24001 20.4579 3.4037 33.3664 10.3846 42.405C10.5249 42.5869 10.7364 42.6823 10.9503 42.6823C11.102 42.6823 11.2558 42.6341 11.3852 42.5342C11.6966 42.2941 11.7548 41.8468 11.514 41.5352C4.9714 33.0609 5.75447 20.9605 13.338 13.3851L13.3386 13.385ZM44.6079 13.385C44.8871 13.1062 44.8871 12.6554 44.6079 12.3776C44.3288 12.0988 43.8775 12.0988 43.5994 12.3776C43.3213 12.6564 43.3203 13.1072 43.5994 13.385C43.878 13.6628 44.3298 13.6628 44.6079 13.385ZM12.3298 43.6141C12.0507 43.8929 12.0507 44.3437 12.3298 44.6215C12.6089 44.9003 13.0602 44.9003 13.3383 44.6215C13.6175 44.3427 13.6175 43.8919 13.3383 43.6141C13.0597 43.3363 12.6079 43.3363 12.3298 43.6141ZM34.3839 27.2838C34.1048 27.5627 34.1048 28.0129 34.3839 28.2913C34.6631 28.5701 35.1138 28.5701 35.3925 28.2913L37.9503 25.7372C38.3538 25.3331 38.5772 24.7969 38.5772 24.2253C38.5772 23.6538 38.3548 23.1175 37.9503 22.7139L37.1144 21.879C36.2806 21.0475 34.9238 21.046 34.0889 21.879L27.0423 28.9174L22.849 24.7287C22.0151 23.8972 20.6584 23.8957 19.8234 24.7287L18.9876 25.5632C18.5841 25.9672 18.3607 26.5035 18.3607 27.0751C18.3607 27.6466 18.5831 28.1829 18.9876 28.5865L25.5297 35.1215C25.9471 35.5375 26.4949 35.7457 27.0427 35.7457C27.5905 35.7457 28.1383 35.5375 28.5557 35.121L31.1136 32.5659C31.3927 32.2871 31.3927 31.8368 31.1136 31.5585C30.8345 31.2797 30.3837 31.2797 30.1051 31.5585L27.5472 34.1125C27.2681 34.3913 26.8173 34.3904 26.5387 34.1125L19.9966 27.5775C19.8618 27.4433 19.7876 27.2649 19.7876 27.0736C19.7876 26.8827 19.8618 26.7043 19.9966 26.5696L20.8325 25.7351C21.1116 25.4563 21.5624 25.4573 21.841 25.7351L26.5388 30.4278C26.8179 30.7067 27.2687 30.7067 27.5473 30.4278L35.0979 22.8859C35.377 22.6071 35.8278 22.6081 36.1064 22.8859L36.9423 23.7209C37.0771 23.855 37.1513 24.0335 37.1513 24.2248C37.1513 24.4157 37.0771 24.5941 36.9423 24.7288L34.3839 27.2838ZM56.9998 28.5C56.9998 44.2144 44.2004 57 28.4689 57C12.7374 57 -0.0620117 44.2144 -0.0620117 28.5C-0.0620117 12.7856 12.7374 0 28.4689 0C44.2004 0 56.9998 12.7856 56.9998 28.5ZM54.1469 28.5C54.1469 14.3569 42.6284 2.85 28.4691 2.85C14.3107 2.85 2.79133 14.3566 2.79133 28.5C2.79133 42.6434 14.3099 54.15 28.4691 54.15C42.6276 54.15 54.1469 42.6434 54.1469 28.5ZM32.0355 29.9249C32.0355 30.318 32.3549 30.6376 32.749 30.6376C33.1425 30.6376 33.4624 30.3185 33.4624 29.9249C33.4624 29.5318 33.143 29.2122 32.749 29.2122C32.3549 29.2127 32.0355 29.5317 32.0355 29.9249Z" fill="#9DFF5C"/>
</g>
<defs>
<clipPath id="clip0_1_228">
<rect width="57" height="57" fill="white"/>
</clipPath>
</defs>
</svg>
