<svg width="70" height="61" viewBox="0 0 70 61" fill="none" xmlns="http://www.w3.org/2000/svg">
<path d="M44.3517 0.389648C43.5071 0.389648 42.7453 0.971612 42.5532 1.8273C42.331 2.81886 42.9564 3.80183 43.9505 4.02335L51.8738 5.79102C52.0096 5.82093 52.1449 5.83563 52.2781 5.83563C53.1227 5.83563 53.8844 5.25367 54.0766 4.39798C54.2993 3.40693 53.6733 2.42345 52.6793 2.20193L44.7559 0.434259C44.6202 0.403843 44.4849 0.389648 44.3517 0.389648ZM41.4588 30.8959C41.9424 30.8964 42.4112 31.0241 42.8211 31.2573C43.4023 31.5879 43.8645 32.1298 44.0811 32.8167C44.5362 34.261 43.7303 35.7995 42.2816 36.2528C42.0075 36.339 41.7299 36.3795 41.4573 36.3795C40.9738 36.3795 40.5049 36.2513 40.0951 36.0186C39.5133 35.6875 39.0511 35.1456 38.8345 34.4587C38.3799 33.0149 39.1854 31.4764 40.634 31.0226C40.9086 30.937 41.1858 30.8959 41.4588 30.8959ZM25.7701 34.9296H11.7751C10.7581 34.9296 9.93374 35.7513 9.93374 36.7652C9.93374 37.7792 10.758 38.6009 11.7751 38.6009H25.7701C26.7871 38.6009 27.6115 37.7792 27.6115 36.7652C27.6115 35.7513 26.7872 34.9296 25.7701 34.9296ZM15.9897 41.9993H1.99464C0.977652 41.9993 0.15332 42.8216 0.15332 43.835C0.15332 44.8489 0.977587 45.671 1.99464 45.671H15.9897C17.0067 45.671 17.8311 44.8488 17.8311 43.835C17.8311 42.8212 17.0068 41.9993 15.9897 41.9993ZM47.4595 14.4974C46.6927 14.4974 45.9757 14.9769 45.7117 15.7399C45.4173 16.591 45.7845 17.5101 46.5411 17.941C46.6403 17.9967 46.7526 18.0388 46.864 18.0768C46.9164 18.0951 47.0145 18.1296 47.0145 18.1296C47.9506 18.4621 48.838 18.8702 49.6724 19.3452C56.4405 23.1943 59.7244 31.4143 57.0913 39.0269C55.9045 42.4579 53.6946 45.2475 50.9192 47.1733L50.9187 47.1738C50.5348 47.3867 50.2251 47.736 50.0706 48.1831C49.7756 49.0342 50.1433 49.9533 50.8999 50.3842C50.9986 50.44 51.1038 50.4881 51.2152 50.5261C51.415 50.5951 51.6184 50.6275 51.8183 50.6275C52.161 50.6275 52.4945 50.5342 52.7818 50.3599L52.7829 50.3594C56.2935 47.999 59.0923 44.524 60.5792 40.2257C63.7999 30.9149 59.7834 20.8607 51.5046 16.1524C50.4865 15.5735 49.4039 15.0752 48.2619 14.6691C48.1297 14.6225 48.062 14.5992 48.062 14.5992C47.8627 14.5307 47.6593 14.4983 47.4595 14.4983L47.4595 14.4974ZM41.4602 27.6267V27.6272C40.8617 27.6267 40.2536 27.7165 39.6525 27.9045C36.4765 28.8986 34.7099 32.2717 35.707 35.4381C36.1815 36.9438 37.1955 38.132 38.4697 38.8569C39.3591 39.3623 40.3751 39.6426 41.4231 39.6487L45.2099 51.6707C45.3548 52.13 45.664 52.4924 46.053 52.714C46.3271 52.8696 46.6408 52.9553 46.9647 52.9558C47.1473 52.9558 47.3329 52.9284 47.5165 52.8706C48.4857 52.5675 49.0247 51.5378 48.7201 50.5717L44.9338 38.5497C47.0187 37.0847 48.0143 34.3939 47.2093 31.8378C46.7348 30.3318 45.7208 29.144 44.4466 28.419C43.5481 27.9081 42.5199 27.6272 41.4602 27.6267ZM3.38933 49.7015C2.37234 49.7015 1.54801 50.5232 1.54801 51.5371C1.54801 52.5511 2.37228 53.3728 3.38933 53.3728H6.32634C7.34333 53.3728 8.16766 52.5511 8.16766 51.5371C8.16766 50.5232 7.34339 49.7015 6.32634 49.7015H3.38933ZM41.4446 6.83805C29.2016 6.83805 18.1538 15.238 15.3003 27.6124H6.66349C5.64498 27.6124 4.81917 28.4357 4.81917 29.4516C4.81917 30.467 5.64498 31.2908 6.66349 31.2908H16.7988C17.7298 31.2908 18.5012 30.6029 18.6268 29.7087V29.7077C18.6924 29.3285 18.7677 28.9488 18.8531 28.5691C21.2664 17.815 30.8368 10.5044 41.4475 10.5044C43.1235 10.5044 44.8254 10.6869 46.5289 11.0671C59.0196 13.8533 66.8804 26.2067 64.0856 38.6586C61.6723 49.4122 52.1018 56.7233 41.4911 56.7233C39.8151 56.7228 38.1132 56.5408 36.4092 56.1606C32.1033 55.2005 28.3486 53.1038 25.3897 50.2569L25.3877 50.2549C25.0531 49.9112 24.5847 49.7008 24.0666 49.7008H11.9665C10.9495 49.7008 10.1252 50.5225 10.1252 51.5365C10.1252 52.5504 10.9494 53.3721 11.9665 53.3721H23.3451C26.691 56.4285 30.8606 58.6793 35.6069 59.7382C37.5809 60.1783 39.5527 60.3896 41.4947 60.3896C53.7885 60.3896 64.8767 51.9188 67.6741 39.4582C69.4833 31.397 67.4387 23.3713 62.7574 17.2952L64.8437 15.415L65.9401 16.6246C66.3042 17.0266 66.806 17.2309 67.3095 17.2309C67.7504 17.2309 68.1928 17.0742 68.5457 16.7559C69.3013 16.0751 69.3603 14.9122 68.6774 14.1588L64.0231 9.02465C63.659 8.62315 63.1571 8.41835 62.6536 8.41835C62.2128 8.41835 61.7704 8.57499 61.4175 8.89335C60.6619 9.57417 60.6029 10.7371 61.2858 11.4904L62.3821 12.7005L60.3283 14.5513C56.866 11.1407 52.4325 8.62682 47.3327 7.48921C45.3588 7.04869 43.3869 6.8373 41.4449 6.8373L41.4446 6.83805Z" fill="#9DFF5C"/>
</svg>
