<svg width="56" height="57" viewBox="0 0 56 57" fill="none" xmlns="http://www.w3.org/2000/svg">
<path d="M28.0002 1C13.0955 1 1.00067 13.1165 1.00067 28.0481C1.00067 28.9814 1.04834 29.9041 1.14095 30.8131C1.23316 31.7225 1.36993 32.6183 1.54967 33.4987C1.72941 34.3791 1.95213 35.2439 2.2151 36.0911L2.21471 36.0914C2.25809 36.2386 2.35851 36.3623 2.49332 36.4352C2.62852 36.5076 2.78716 36.5229 2.9333 36.4771C3.07982 36.4316 3.20174 36.3291 3.27207 36.1925C3.34202 36.0562 3.35491 35.8973 3.30724 35.7513C3.0556 34.9405 2.84226 34.1118 2.66993 33.2688C2.49761 32.426 2.36632 31.5682 2.27801 30.6976C2.1897 29.827 2.14477 28.943 2.14477 28.0484C2.14477 13.7362 13.7144 2.14585 27.9999 2.14585C42.2864 2.14585 53.854 13.7352 53.854 28.0484C53.854 28.943 53.8091 29.8269 53.7208 30.6976C53.6325 31.5683 53.5012 32.426 53.3288 33.2688C53.1565 34.1117 52.9432 34.9401 52.6915 35.7513C52.6439 35.8973 52.6567 36.0558 52.7271 36.1921C52.7974 36.3283 52.9193 36.4309 53.0655 36.4763C53.2116 36.5217 53.3699 36.5068 53.5051 36.4344C53.6399 36.362 53.7403 36.2386 53.7837 36.0914C54.0466 35.2443 54.2694 34.3795 54.4491 33.4991C54.6288 32.6187 54.7664 31.7225 54.8586 30.8135C54.9508 29.9045 54.9977 28.9814 54.9977 28.0485C54.9977 13.1169 42.9029 1.00039 27.9992 1.00039L28.0002 1ZM24.3771 6.67289C24.2161 6.67093 24.0567 6.6815 23.8996 6.70421C23.0732 6.82048 22.3186 7.25502 21.7986 7.90884C21.0077 7.91745 20.2274 8.20793 19.6428 8.79437C18.9848 9.4544 18.7066 10.3418 18.7722 11.2384C18.3584 11.0583 17.9149 10.9671 17.4706 10.9671C16.6364 10.9671 15.8025 11.2854 15.1683 11.9215C14.3813 12.7108 14.0831 13.8077 14.2723 14.831C14.0746 14.7942 13.8741 14.7758 13.6741 14.7758C12.8398 14.7758 12.0059 15.0937 11.3717 15.7298C10.1033 17.0021 10.1033 19.075 11.3717 20.3473L11.6808 20.657C10.9157 20.7047 10.1647 21.0199 9.58215 21.604C8.31335 22.8762 8.31335 24.9484 9.58215 26.2206L12.1908 28.8366C10.6368 30.6761 10.1194 33.3226 10.9502 35.4874L7.5132 38.9344C7.11424 38.6858 6.65902 38.5609 6.20339 38.5609C5.56803 38.5609 4.93269 38.8025 4.45084 39.286L1.72298 42.0204C0.759007 42.987 0.759007 44.5682 1.72298 45.5347L11.2303 55.0692C12.1942 56.0358 13.7717 56.0358 14.7357 55.0692L17.4627 52.334C18.2903 51.504 18.4064 50.2215 17.8128 49.2636L20.5184 46.5502C21.242 48.4301 22.5846 49.9612 23.8975 51.1082C25.8262 52.7931 27.757 53.7018 27.757 53.7018L27.7558 53.7021C27.9101 53.7746 28.0887 53.7746 28.243 53.7021C28.243 53.7021 30.1733 52.7935 32.1025 51.1086C33.3814 49.9916 34.6881 48.5107 35.4242 46.6977L38.1872 49.4694C37.5932 50.4274 37.7097 51.7098 38.5373 52.5398L41.2643 55.2751C42.2283 56.2416 43.8061 56.2416 44.7697 55.2751L54.277 45.7406C55.241 44.774 55.241 43.1928 54.277 42.2263L51.55 39.4918C51.0682 39.0083 50.432 38.7668 49.7963 38.7668C49.3411 38.7668 48.8859 38.8917 48.4873 39.1399L45.0553 35.6987C45.9232 33.5492 45.3324 30.9987 43.8444 29.1106L44.7291 28.2524L44.7287 28.252C44.7318 28.2501 44.7346 28.2481 44.7373 28.2458L45.9369 27.0428C47.2057 25.7705 47.2057 23.6975 45.9369 22.4253C45.3027 21.7891 44.468 21.4712 43.6339 21.4712C43.4338 21.4712 43.2337 21.4904 43.0364 21.5264C43.2251 20.5035 42.927 19.407 42.1404 18.6181C41.5062 17.9819 40.6716 17.664 39.8374 17.664C39.6373 17.664 39.4373 17.6832 39.2399 17.7192C39.4291 16.6963 39.1305 15.599 38.344 14.8102C37.7098 14.174 36.8751 13.8562 36.0409 13.8562C35.8409 13.8562 35.6408 13.8753 35.4435 13.9113C35.6322 12.8884 35.3341 11.7919 34.5475 11.003C33.9133 10.3668 33.0794 10.049 32.2452 10.049C32.2284 10.049 32.2131 10.0497 32.1967 10.0501C32.1365 9.89433 32.065 9.74243 31.9818 9.59798C31.7736 9.23664 31.4965 8.91563 31.162 8.6549C30.8424 8.40552 30.4692 8.21331 30.0586 8.09509C30.0398 8.08843 30.0211 8.08256 30.0019 8.07786L25.1899 6.78444C24.9191 6.71162 24.6468 6.67522 24.3783 6.67247L24.3771 6.67289ZM24.2564 7.81759C24.4646 7.80898 24.6788 7.83443 24.8925 7.8908L29.7045 9.18422C29.9894 9.26095 30.2422 9.39054 30.4583 9.55887C30.6748 9.7276 30.8541 9.93547 30.9893 10.1704C31.0085 10.2048 31.026 10.2416 31.044 10.2769C30.6415 10.4358 30.2645 10.6773 29.9398 11.0027L27.8688 13.0795L23.7987 11.9857C22.6589 11.6796 21.9986 10.5337 22.3045 9.38983C22.5526 8.46046 23.3536 7.84937 24.2563 7.8173L24.2564 7.81759ZM21.1855 9.15602C20.7619 10.8739 21.79 12.632 23.5026 13.0923L27.8935 14.2722C27.8943 14.2726 27.8947 14.273 27.8955 14.2734L28.1651 14.3458L30.2169 16.4038C31.2289 17.4189 31.2915 18.8666 30.4877 19.6726C29.684 20.4787 28.2409 20.416 27.2289 19.4013L20.7034 12.8565C19.7078 11.8426 19.65 10.4055 20.4491 9.60373C20.6597 9.39272 20.909 9.24514 21.1829 9.15548L21.1855 9.15602ZM32.243 11.1846C32.7814 11.1846 33.3195 11.3937 33.7369 11.8126C34.5715 12.6496 34.5715 13.9732 33.7369 14.8101L33.1468 15.4024V15.402C32.9284 15.6268 32.9307 15.9854 33.1523 16.2069C33.3735 16.4285 33.7314 16.4309 33.9557 16.2124L34.5457 15.6205C35.3803 14.7835 36.6987 14.7835 37.5333 15.6205C38.368 16.4575 38.368 17.7811 37.5333 18.618L36.9433 19.2104V19.21C36.8304 19.3161 36.7655 19.4636 36.7632 19.6187C36.7608 19.7737 36.8214 19.9232 36.9308 20.0329C37.0402 20.1425 37.1895 20.2028 37.3442 20.2004C37.499 20.1977 37.6463 20.1327 37.7522 20.0195L38.3422 19.4272C39.1768 18.5902 40.4952 18.5902 41.3302 19.4272C42.1649 20.2642 42.1649 21.5878 41.3302 22.4252L40.739 23.0175V23.0171C40.6319 23.1248 40.5718 23.2708 40.5718 23.4227C40.5722 23.5746 40.6323 23.7202 40.7398 23.8275C40.8472 23.9351 40.9926 23.995 41.1446 23.995C41.2962 23.995 41.4416 23.9343 41.5486 23.8267L42.1387 23.2356C42.9733 22.3986 44.2916 22.3986 45.1263 23.2356C45.961 24.0725 45.9609 25.3958 45.1263 26.2331L43.9333 27.4295L43.9271 27.4358L36.0254 35.0986V34.1755C36.0254 34.0236 35.9652 33.8776 35.8578 33.7703C35.7507 33.6631 35.605 33.6028 35.4533 33.6028H20.5457C20.2303 33.6032 19.9744 33.8592 19.9744 34.1755V43.6795C19.9744 44.2424 20.0357 44.7831 20.1459 45.3018L17.0497 48.407L12.7167 44.0616L8.36652 39.6986L12.015 36.039H12.0154C12.0337 36.0218 12.0509 36.0034 12.0669 35.9842C12.2283 35.7931 12.2475 35.5195 12.1142 35.3081C11.3452 33.5941 11.7246 31.2394 13.0032 29.6516L13.921 30.572C15.1894 31.8443 17.258 31.8443 18.5264 30.572C19.1086 29.9883 19.4228 29.2355 19.4704 28.4694L19.7772 28.7775C21.0456 30.0498 23.1149 30.0498 24.3833 28.7775C25.1699 27.9887 25.4685 26.8922 25.2797 25.8691C26.2995 26.0582 27.3932 25.7587 28.1794 24.9703C29.1516 23.9955 29.3778 22.5505 28.8601 21.3558C29.7545 21.4224 30.6399 21.1428 31.2983 20.4832C32.598 19.18 32.419 16.9893 31.0272 15.5936L29.0031 13.5634L30.749 11.8123C31.1663 11.3938 31.7048 11.1843 32.2429 11.1843L32.243 11.1846ZM17.4703 12.1042C18.0084 12.1042 18.5473 12.3133 18.9646 12.7322L25.5733 19.3599L26.422 20.211C26.4224 20.2114 26.4224 20.2114 26.4228 20.2118L27.3707 21.1623C28.2054 21.9993 28.2054 23.3229 27.3707 24.1599C26.5361 24.9969 25.2185 24.9969 24.3839 24.1599L15.977 15.7294C15.1423 14.8924 15.1423 13.5687 15.977 12.7318C16.3943 12.3133 16.9323 12.1039 17.4704 12.1039L17.4703 12.1042ZM13.6739 15.9114C14.2119 15.9114 14.7508 16.12 15.1681 16.5389L23.5743 24.9702C24.4089 25.8072 24.4089 27.1308 23.5743 27.9678C22.7396 28.8047 21.422 28.8047 20.5874 27.9678L12.1801 19.5364C11.3454 18.6995 11.3454 17.3758 12.1801 16.5389C12.5974 16.1204 13.1355 15.9114 13.6736 15.9114H13.6739ZM11.8846 21.7859C12.4226 21.7859 12.9607 21.9949 13.3781 22.4134L17.7165 26.7655C18.5512 27.6025 18.5512 28.9258 17.7165 29.7631C16.8819 30.6001 15.5642 30.6001 14.7297 29.7631L10.3912 25.4114C9.55658 24.5744 9.55658 23.2508 10.3912 22.4138C10.8085 21.9953 11.3466 21.7863 11.8847 21.7863L11.8846 21.7859ZM43.0154 29.9134C44.2763 31.5808 44.696 33.809 43.8914 35.5022C43.8246 35.6021 43.7914 35.7207 43.7957 35.8409C43.7984 36.0245 43.8891 36.196 44.0395 36.3017L47.6312 39.9044L43.2819 44.2671L38.9485 48.6128L35.8155 45.4708C35.9492 44.9012 36.0246 44.3037 36.0246 43.6798V36.6934L43.0154 29.9134ZM21.1165 34.7482H34.8808V43.6794C34.8808 46.4346 33.1483 48.6743 31.35 50.2449C29.7468 51.6453 28.3264 52.3676 27.9981 52.5304C27.6691 52.3672 26.2499 51.6449 24.6471 50.2449C22.8492 48.6747 21.1163 46.4346 21.1163 43.6794L21.1165 34.7482ZM32.0739 39.0705C31.9251 39.0752 31.7844 39.1383 31.6812 39.2455L26.4999 44.4812L24.3168 42.2752C24.2113 42.162 24.0644 42.0958 23.9097 42.0927C23.7549 42.09 23.6056 42.1495 23.4959 42.2587C23.3861 42.3679 23.3247 42.5171 23.3263 42.6717C23.3282 42.8267 23.3923 42.9747 23.5044 43.0812L26.094 45.6982C26.2014 45.8067 26.3476 45.8677 26.4999 45.8677C26.6523 45.8677 26.7985 45.8067 26.9059 45.6982L32.4932 40.0515C32.6612 39.8863 32.7108 39.6342 32.6182 39.4173C32.5252 39.2004 32.3092 39.0626 32.0739 39.0704L32.0739 39.0705ZM6.20281 39.6973C6.54236 39.6973 6.88193 39.83 7.14685 40.0958L16.6455 49.6225L16.6541 49.6312C17.184 50.1628 17.184 50.9943 16.6541 51.5259L13.9271 54.2604C13.3972 54.792 12.5692 54.792 12.0394 54.2604L2.5333 44.7258C2.00344 44.1942 2.00344 43.3635 2.5333 42.8322L5.26035 40.0969C5.52528 39.8311 5.86484 39.6984 6.20401 39.6984L6.20281 39.6973ZM49.7965 39.9024C50.1357 39.9024 50.4756 40.0351 50.7405 40.301L53.4672 43.0366C53.9971 43.5683 53.9971 44.3998 53.4672 44.9314L43.9611 54.4647C43.4313 54.9963 42.6033 54.9963 42.0734 54.4647L39.3464 51.7298C38.8165 51.1982 38.8165 50.3667 39.3464 49.8351L44.1002 45.0681L48.8461 40.3085L48.8547 40.2999C49.1197 40.0341 49.4585 39.9013 49.798 39.9013L49.7965 39.9024Z" fill="#9DFF5C" stroke="#9DFF5C" stroke-width="1.1"/>
</svg>
